<?xml version="1.0" encoding="UTF-8"?>
<svg id="Layer_1" xmlns="http://www.w3.org/2000/svg" viewBox="0 0 587.19 273.85">
  <defs>
    <style>
      .cls-1 {
        fill-rule: evenodd;
      }

      .cls-1, .cls-2 {
        fill: #1f1f1f;
      }
    </style>
  </defs>
  <g>
    <path class="cls-2" d="M0,171.24h29.92c21.82,0,37.59,16.2,37.59,38.88s-15.66,38.88-37.59,38.88H0v-77.77ZM12.74,236.26h17.17c14.8,0,24.84-10.58,24.84-26.14s-10.04-26.14-24.84-26.14H12.74v52.28Z"/>
    <path class="cls-2" d="M102.38,193.92c15.34,0,25.81,11.23,25.81,27.33,0,2.05-.32,4.32-.54,6.48h-40.18c2.16,6.7,8.21,10.8,16.2,10.8,5.18,0,10.15-1.84,13.39-5.4l8.1,8.1c-5.18,5.72-12.74,8.86-21.6,8.86-16.31,0-28.73-12.21-28.73-28.08s11.88-28.08,27.54-28.08ZM87.26,217.79h28.95c-1.08-7.67-6.8-12.42-14.04-12.42s-13.83,4.97-14.91,12.42Z"/>
    <path class="cls-2" d="M141.15,232.16c4.21,3.67,10.26,6.37,16.31,6.37,5.4,0,9.61-2.27,9.61-5.18,0-4.54-6.8-5.94-10.8-7.02-8.86-2.48-20.85-5.08-20.85-16.63,0-9.18,8.96-15.77,21.17-15.77,8.43,0,16.2,3.13,21.49,7.88l-7.02,8.64c-3.89-3.35-9.29-4.97-14.47-4.97-5.62,0-8.32,1.94-8.32,4.32,0,2.92,5.4,4.1,11.23,5.51,10.69,2.48,20.31,6.26,20.31,17.93,0,9.72-9.61,16.85-22.68,16.85-8.96,0-17.07-3.24-23.55-9.18l7.56-8.75Z"/>
    <path class="cls-2" d="M184.14,195h9.94l.05-8.06,12.69-6.41v14.47h13.72v12.74h-13.72v19.33c0,8.53,1.3,10.69,6.48,10.69,2.38,0,4.54-.32,7.24-.86v12.1c-2.48.65-6.05,1.08-8.96,1.08-12.31,0-17.5-5.62-17.5-19.23v-23.11h-9.94v-12.74Z"/>
    <path class="cls-2" d="M237.06,170.16c4.21,0,7.56,3.46,7.56,7.56s-3.35,7.67-7.56,7.67-7.56-3.46-7.56-7.67,3.35-7.56,7.56-7.56ZM230.68,249.01v-54h12.74v54h-12.74Z"/>
    <path class="cls-2" d="M255.96,249.01v-54h12.74v5.83c4-4.21,9.83-6.91,16.2-6.91,12.53,0,21.17,8.86,21.17,22.57v32.51h-12.75v-29.81c0-9.07-4.75-13.29-11.56-13.29-7.34,0-13.07,5.4-13.07,13.93v29.16h-12.74Z"/>
    <path class="cls-2" d="M371.52,222.01c0,15.45-12.53,28.08-28.08,28.08s-28.08-12.64-28.08-28.08,12.64-28.08,28.08-28.08,28.08,12.53,28.08,28.08ZM343.44,237.34c8.42,0,15.34-6.91,15.34-15.34s-6.91-15.34-15.34-15.34-15.34,6.91-15.34,15.34,6.91,15.34,15.34,15.34Z"/>
    <path class="cls-2" d="M459,222.01c0,15.45-12.53,28.08-28.08,28.08s-28.08-12.64-28.08-28.08,12.64-28.08,28.08-28.08,28.08,12.53,28.08,28.08ZM430.92,237.34c8.42,0,15.34-6.91,15.34-15.34s-6.91-15.34-15.34-15.34-15.34,6.91-15.34,15.34,6.91,15.34,15.34,15.34Z"/>
    <path class="cls-2" d="M492.69,193.92c6.8,0,13.07,3.56,16.63,7.78v-6.7h12.75v52.92c0,16.09-10.91,25.92-28.84,25.92-8.53,0-17.5-2.92-23.87-8.75l8.86-8.86c4.21,3.56,9.94,5.51,15.23,5.51,10.04,0,15.88-4.86,15.88-12.96v-6.7c-3.56,4.43-9.83,7.99-16.63,7.99-15.45,0-26.79-12.64-26.79-28.08s11.34-28.08,26.79-28.08ZM478.65,222.01c0,8.42,6.91,15.34,15.34,15.34s15.34-6.91,15.34-15.34-6.91-15.34-15.34-15.34-15.34,6.91-15.34,15.34Z"/>
    <path class="cls-2" d="M529.19,195h13.83l15.55,38.02,14.8-38.02h13.83l-25.38,63.73c-4.1,10.26-11.45,15.12-21.49,15.12-1.62,0-3.35,0-4.97-.11v-12.31c.97,0,1.94.11,3.02.11,5.08,0,8.53-1.94,11.02-7.56l2.16-4.97-22.36-54Z"/>
    <path class="cls-2" d="M393.56,249.01h-12.74l-.02-74.6,12.76-6.41v81.01Z"/>
  </g>
  <path id="Dee" class="cls-1" d="M289.1,48.73c.19,0,.38,0,.57,0,5.6,0,10.88,2.14,14.9,6.06,4.16,4.06,6.45,9.49,6.45,15.3,0,11.78-9.58,21.33-21.4,21.37-5.33.02-21.31.14-21.31.14v-20.86c0-11.83,9.32-21.7,20.79-22M355.06,37.77c-5.23-9.17-12.14-16.69-20.55-22.35-8.22-5.53-17.57-9.55-27.78-11.94-9.91-2.32-19.9-3.49-29.69-3.49h-57.99l.3,57.75c.07,12.8,5.12,24.81,14.22,33.82,5.93,5.86,13.12,9.99,20.95,12.14,6.94,1.34,13.21,1.66,13.87,1.69l21.28-.14c19.38,0,35.15-15.78,35.15-35.17,0-9.56-3.77-18.51-10.62-25.19-6.85-6.67-15.89-10.21-25.46-9.97-18.87.48-34.23,16.54-34.23,35.8v18.43c-4.15-1.67-7.97-4.16-11.25-7.41-6.48-6.41-10.07-14.96-10.12-24.08l-.22-43.88h44.11c8.74,0,17.67,1.06,26.55,3.13,8.57,2,16.38,5.35,23.21,9.95,6.63,4.47,12.11,10.44,16.28,17.74,4.1,7.19,6.17,16.4,6.17,27.38,0,10.13-2.07,18.87-6.16,25.98-4.19,7.29-9.7,13.35-16.38,18.01-6.86,4.79-14.71,8.38-23.32,10.67-8.82,2.35-17.68,3.54-26.35,3.54h-8.72v-16.99c-2.37-.09-10.29-.81-13.8-1.7v32.49h22.52c9.86,0,19.92-1.34,29.9-4,10.17-2.71,19.48-6.97,27.67-12.69,8.36-5.83,15.23-13.38,20.45-22.45,5.31-9.23,8-20.29,8-32.86,0-13.42-2.69-24.93-7.99-34.22"/>
</svg>