<?xml version="1.0" encoding="UTF-8"?>
<svg id="Layer_1" xmlns="http://www.w3.org/2000/svg" viewBox="0 0 335.93 335.93">
  <defs>
    <style>
      .cls-1 {
        fill: #1f1f1f;
        fill-rule: evenodd;
      }
    </style>
  </defs>
  <path id="Dee" class="cls-1" d="M163.41,113.68c.44-.01.88-.02,1.33-.02,13.07,0,25.38,5,34.76,14.14,9.71,9.47,15.05,22.14,15.05,35.7,0,27.49-22.35,49.76-49.92,49.84-12.43.05-49.72.32-49.72.32v-48.67c0-27.6,21.75-50.62,48.49-51.31M317.28,88.12c-12.2-21.39-28.33-38.93-47.95-52.14-19.18-12.91-40.98-22.28-64.8-27.85C181.42,2.74,158.11,0,135.27,0H0l.7,134.72c.15,29.87,11.94,57.89,33.17,78.9,13.84,13.68,30.61,23.32,48.87,28.32,16.19,3.12,30.81,3.87,32.36,3.94l49.64-.32c45.22,0,82.01-36.8,82.01-82.05,0-22.31-8.8-43.18-24.77-58.76-15.97-15.57-37.06-23.82-59.39-23.25-44.03,1.13-79.85,38.6-79.85,83.51v43c-9.69-3.89-18.59-9.71-26.24-17.28-15.12-14.95-23.5-34.9-23.61-56.16l-.52-102.36h102.91c20.38,0,41.23,2.46,61.95,7.31,20,4.67,38.22,12.48,54.14,23.2,15.47,10.42,28.24,24.35,37.97,41.38,9.56,16.77,14.4,38.26,14.4,63.88,0,23.63-4.84,44.01-14.38,60.61-9.78,17.01-22.64,31.15-38.21,42.01-16,11.16-34.31,19.54-54.41,24.89-20.57,5.47-41.25,8.25-61.47,8.25h-20.35v-39.63c-5.54-.21-23.99-1.9-32.19-3.97v75.79h52.54c23.01,0,46.47-3.14,69.74-9.33,23.73-6.32,45.45-16.27,64.54-29.6,19.49-13.59,35.53-31.22,47.7-52.37,12.39-21.54,18.67-47.34,18.67-76.67,0-31.3-6.27-58.16-18.64-79.84"/>
</svg>